<svg class="ldi-k5vd49" width="241px" height="241px" xmlns="http://www.w3.org/2000/svg" xmlns:xlink="http://www.w3.org/1999/xlink" viewBox="0 0 100 100" preserveAspectRatio="xMidYMid" style="background: rgba(0, 0, 0, 0) none repeat scroll 0% 0%;"><!--?xml version="1.0" encoding="utf-8"?--><!--Generator: Adobe Illustrator 21.0.0, SVG Export Plug-In . SVG Version: 6.00 Build 0)--><svg version="1.1" id="圖層_1" xmlns="http://www.w3.org/2000/svg" xmlns:xlink="http://www.w3.org/1999/xlink" x="0px" y="0px" viewBox="0 0 100 100" style="transform-origin: 50px 50px 0px;" xml:space="preserve"><g style="transform-origin: 50px 50px 0px; transform: scale(0.68);"><g style="transform-origin: 50px 50px 0px; animation-duration: 1.8s; animation-delay: -1.8s;" class=""><style type="text/css" style="transform-origin: 50px 50px 0px; animation-duration: 4.4s; animation-delay: -4.4s;" class="ld ld-fade">.st0{fill:#333333;}</style><g style="transform-origin: 50px 50px 0px; animation-duration: 4.4s; animation-delay: -4.15556s;" class="ld ld-fade"><path id="XMLID_165_" class="st0" d="M30.7,22.5c0.3-0.2,0.6-0.4,0.9-0.6c0.5-0.3,1-0.6,1.5-0.9c0.3-0.2,0.6-0.4,1-0.5 c0.4-0.2,0.7-0.4,1.1-0.6c0.4-0.2,0.9-0.4,1.3-0.6c0.4-0.2,0.9-0.4,1.3-0.5c0.4-0.2,0.8-0.3,1.2-0.4c0.3-0.1,0.7-0.2,1-0.3 c0.6-0.2,1.3-0.4,1.9-0.5c0.3-0.1,0.5-0.1,0.8-0.2c0.7-0.2,1.4-0.3,2.2-0.4c0.2,0,0.3,0,0.5-0.1c0.7-0.1,1.4-0.2,2.1-0.2 c0.1,0,0.2,0,0.3,0v-0.1V5C37,5.5,27.2,9.8,19.7,16.6l8.2,8.2c0.1-0.1,0.3-0.2,0.5-0.4c0.4-0.3,0.8-0.6,1.1-0.9 C29.9,23.1,30.3,22.8,30.7,22.5z" fill="#e4efff" style="fill: rgb(228, 239, 255);"/></g><g style="transform-origin: 50px 50px 0px; animation-duration: 4.4s; animation-delay: -3.91111s;" class="ld ld-fade"><path id="XMLID_182_" class="st0" d="M47.1,83.4c-0.2,0-0.5,0-0.7-0.1c-0.3,0-0.6-0.1-0.9-0.1c-0.2,0-0.5-0.1-0.7-0.1 c-0.3,0-0.6-0.1-0.9-0.2c-0.2,0-0.5-0.1-0.7-0.1c-0.3-0.1-0.6-0.1-1-0.2c-0.2-0.1-0.4-0.1-0.6-0.1c-0.4-0.1-0.7-0.2-1-0.3 c-0.2-0.1-0.3-0.1-0.5-0.1c-0.5-0.2-1-0.3-1.5-0.5c-0.1-0.1-0.3-0.1-0.4-0.2c-0.4-0.1-0.7-0.3-1.1-0.4c-0.2-0.1-0.4-0.2-0.6-0.3 c-0.3-0.1-0.6-0.3-0.9-0.4c-0.2-0.1-0.4-0.2-0.6-0.3c-0.3-0.1-0.5-0.3-0.8-0.4c-0.2-0.1-0.4-0.2-0.6-0.4c-0.2-0.1-0.5-0.3-0.7-0.4 c-0.2-0.1-0.4-0.3-0.6-0.4c-0.2-0.1-0.5-0.3-0.7-0.5c-0.2-0.1-0.4-0.3-0.6-0.4c-0.2-0.2-0.5-0.3-0.7-0.5c-0.2-0.2-0.4-0.3-0.6-0.5 c-0.2-0.2-0.4-0.3-0.6-0.5c-0.2-0.2-0.4-0.3-0.6-0.5c-0.2-0.2-0.4-0.4-0.6-0.5c-0.2-0.2-0.4-0.3-0.6-0.5c-0.2-0.2-0.4-0.4-0.6-0.6 c-0.2-0.2-0.4-0.4-0.5-0.5c-0.2-0.2-0.4-0.4-0.6-0.6c-0.2-0.2-0.3-0.4-0.5-0.6c-0.2-0.2-0.4-0.4-0.5-0.6c-0.2-0.2-0.3-0.4-0.5-0.6 c-0.2-0.2-0.3-0.4-0.5-0.6c-0.2-0.2-0.3-0.4-0.5-0.6c-0.2-0.2-0.3-0.4-0.5-0.7c-0.1-0.2-0.3-0.4-0.4-0.6c-0.2-0.2-0.3-0.5-0.4-0.7 c-0.1-0.2-0.3-0.4-0.4-0.6c-0.1-0.2-0.3-0.5-0.4-0.7c-0.1-0.2-0.2-0.4-0.4-0.7c-0.1-0.2-0.3-0.5-0.4-0.7c-0.1-0.2-0.2-0.5-0.3-0.7 c-0.1-0.3-0.2-0.5-0.3-0.8c-0.1-0.2-0.2-0.5-0.3-0.7c-0.1-0.3-0.2-0.5-0.3-0.8c-0.1-0.2-0.2-0.5-0.3-0.7c-0.1-0.3-0.2-0.5-0.3-0.8 c-0.1-0.2-0.2-0.5-0.2-0.7c-0.1-0.3-0.2-0.6-0.2-0.9c-0.1-0.2-0.1-0.5-0.2-0.7c-0.1-0.3-0.1-0.6-0.2-0.9c-0.1-0.2-0.1-0.5-0.2-0.7 c-0.1-0.3-0.1-0.6-0.2-0.9c0-0.2-0.1-0.5-0.1-0.7c0-0.3-0.1-0.7-0.1-1c0-0.2-0.1-0.4-0.1-0.7c0-0.4-0.1-0.7-0.1-1.1 c0-0.2,0-0.4,0-0.6c0-0.6,0-1.1,0-1.7c0-0.6,0-1.1,0-1.7c0-0.1,0-0.3,0-0.4c0-0.4,0.1-0.8,0.1-1.3c0-0.1,0-0.3,0-0.4 c0-0.4,0.1-0.9,0.2-1.3c0-0.1,0-0.2,0-0.3c0.1-0.5,0.2-1,0.3-1.4c0,0,0-0.1,0-0.1c1.2-5.8,3.8-11.1,7.8-15.5l-8.1-8.1 C0.7,37.2,1.2,64.7,18.3,81.8c0.5,0.5,1,1,1.6,1.5c0.2,0.2,0.4,0.3,0.6,0.5c0.3,0.3,0.7,0.6,1.1,0.9c0.2,0.2,0.5,0.4,0.7,0.6 c0.3,0.3,0.7,0.5,1,0.8c0.3,0.2,0.5,0.4,0.8,0.6c0.3,0.2,0.6,0.5,1,0.7c0.3,0.2,0.5,0.4,0.8,0.5c0.3,0.2,0.7,0.4,1,0.6 c0.3,0.2,0.6,0.3,0.8,0.5c0.3,0.2,0.7,0.4,1,0.6c0.3,0.2,0.6,0.3,0.9,0.5c0.3,0.2,0.7,0.3,1,0.5c0.3,0.1,0.6,0.3,0.9,0.4 c0.3,0.2,0.7,0.3,1,0.5c0.3,0.1,0.6,0.3,0.9,0.4c0.4,0.1,0.7,0.3,1.1,0.4c0.3,0.1,0.6,0.2,0.9,0.3c0.4,0.1,0.7,0.2,1.1,0.4 c0.3,0.1,0.6,0.2,0.9,0.3c0.4,0.1,0.8,0.2,1.1,0.3c0.3,0.1,0.6,0.2,0.9,0.2c0.4,0.1,0.8,0.2,1.2,0.3c0.3,0.1,0.6,0.1,0.9,0.2 c0.4,0.1,0.8,0.2,1.2,0.2c0.3,0,0.6,0.1,0.9,0.1c0.4,0.1,0.9,0.1,1.3,0.2c0.3,0,0.5,0.1,0.8,0.1c0.5,0,1,0.1,1.5,0.1 c0.2,0,0.4,0,0.6,0c0,0,0.1,0,0.1,0V83.5v-0.1C47.6,83.4,47.3,83.4,47.1,83.4z" fill="#e4efff" style="fill: rgb(228, 239, 255);"/></g><g style="transform-origin: 50px 50px 0px; animation-duration: 4.4s; animation-delay: -3.66667s;" class="ld ld-fade"><path id="XMLID_277_" class="st0" d="M20.7,47.1C20.7,47.1,20.7,47.1,20.7,47.1c0,0.5-0.1,0.9-0.1,1.4c0,0.5,0,1,0,1.5 c0,0.5,0,1,0,1.5c0,0.2,0,0.3,0,0.5c0,0.3,0,0.7,0.1,1c0,0.2,0,0.4,0.1,0.6c0,0.3,0.1,0.6,0.1,0.9c0,0.2,0.1,0.4,0.1,0.6 c0,0.3,0.1,0.5,0.1,0.8c0,0.2,0.1,0.4,0.1,0.6c0.1,0.3,0.1,0.5,0.2,0.8c0.1,0.2,0.1,0.4,0.2,0.6c0.1,0.2,0.1,0.5,0.2,0.7 c0.1,0.2,0.1,0.4,0.2,0.6c0.1,0.2,0.2,0.5,0.2,0.7c0.1,0.2,0.2,0.4,0.2,0.6c0.1,0.2,0.2,0.5,0.3,0.7c0.1,0.2,0.2,0.4,0.3,0.6 c0.1,0.2,0.2,0.4,0.3,0.7c0.1,0.2,0.2,0.4,0.3,0.6c0.1,0.2,0.2,0.4,0.3,0.6c0.1,0.2,0.2,0.4,0.3,0.6c0.1,0.2,0.2,0.4,0.4,0.6 c0.1,0.2,0.2,0.4,0.4,0.6c0.1,0.2,0.2,0.4,0.4,0.6c0.1,0.2,0.3,0.4,0.4,0.6c0.1,0.2,0.3,0.4,0.4,0.6c0.1,0.2,0.3,0.4,0.4,0.6 c0.1,0.2,0.3,0.4,0.4,0.5c0.1,0.2,0.3,0.4,0.4,0.5c0.1,0.2,0.3,0.3,0.4,0.5c0.2,0.2,0.3,0.3,0.5,0.5c0.2,0.2,0.3,0.3,0.5,0.5 c0.2,0.2,0.3,0.3,0.5,0.5c0.2,0.2,0.3,0.3,0.5,0.5c0.2,0.2,0.3,0.3,0.5,0.5c0.2,0.2,0.3,0.3,0.5,0.4c0.2,0.2,0.4,0.3,0.5,0.5 c0.2,0.1,0.4,0.3,0.5,0.4c0.2,0.1,0.4,0.3,0.6,0.4c0.2,0.1,0.4,0.3,0.6,0.4c0.2,0.1,0.4,0.3,0.6,0.4c0.2,0.1,0.4,0.3,0.6,0.4 c0.2,0.1,0.4,0.2,0.6,0.4c0.2,0.1,0.5,0.3,0.7,0.4c0.3,0.2,0.6,0.3,0.9,0.5c0.3,0.1,0.5,0.3,0.8,0.4c0.2,0.1,0.4,0.2,0.6,0.3 c0.2,0.1,0.5,0.2,0.7,0.3c0.2,0.1,0.4,0.2,0.6,0.2c0.2,0.1,0.5,0.2,0.7,0.3c0.2,0.1,0.4,0.1,0.6,0.2c0.2,0.1,0.5,0.2,0.7,0.2 c0.2,0.1,0.4,0.1,0.6,0.2c0.2,0.1,0.5,0.1,0.7,0.2c0.2,0.1,0.4,0.1,0.6,0.2c0.3,0.1,0.5,0.1,0.8,0.2c0.2,0,0.4,0.1,0.6,0.1 c0.3,0,0.5,0.1,0.8,0.1c0.2,0,0.4,0.1,0.6,0.1c0.3,0,0.5,0.1,0.8,0.1c0.2,0,0.4,0,0.6,0.1c0.2,0,0.3,0,0.5,0V67.7 c-8.8-1-15.7-8.6-15.7-17.7S39,33.4,47.8,32.3V20.7c-0.1,0-0.3,0-0.4,0c-0.3,0-0.5,0-0.8,0.1c-0.2,0-0.4,0-0.6,0.1 c-0.3,0-0.6,0.1-0.9,0.1c-0.1,0-0.3,0.1-0.4,0.1c-0.3,0.1-0.7,0.1-1,0.2c-0.1,0-0.2,0-0.3,0.1c-0.4,0.1-0.8,0.2-1.2,0.3 c0,0-0.1,0-0.1,0C30.7,24.8,21.9,34.9,20.7,47.1z" fill="#e4efff" style="fill: rgb(228, 239, 255);"/></g><g style="transform-origin: 50px 50px 0px; animation-duration: 4.4s; animation-delay: -3.42222s;" class="ld ld-fade"><path id="XMLID_760_" class="st0" d="M83.3,80.2c7.1-7.8,11.1-17.6,11.6-28.1H83.5c-0.5,7.5-3.4,14.4-8.3,20L83.3,80.2z" fill="#e4efff" style="fill: rgb(228, 239, 255);"/></g><g style="transform-origin: 50px 50px 0px; animation-duration: 4.4s; animation-delay: -3.17778s;" class="ld ld-fade"><path id="XMLID_766_" class="st0" d="M79.2,52.1H67.6c-1,8.1-7.4,14.6-15.6,15.6v11.6c0.1,0,0.3,0,0.4,0c0.2,0,0.5,0,0.7-0.1 c0.2,0,0.4,0,0.6-0.1c0.3,0,0.6-0.1,0.9-0.1c0.1,0,0.2,0,0.4-0.1C68.1,76.6,78.2,65.6,79.2,52.1z" fill="#e4efff" style="fill: rgb(228, 239, 255);"/></g><g style="transform-origin: 50px 50px 0px; animation-duration: 4.4s; animation-delay: -2.93333s;" class="ld ld-fade"><path id="XMLID_779_" class="st0" d="M52,16.5c0.3,0,0.6,0,0.8,0.1c0.2,0,0.4,0,0.6,0.1c0.4,0,0.8,0.1,1.2,0.1c0.2,0,0.3,0,0.5,0.1 c0.5,0.1,1.1,0.2,1.6,0.3c0,0,0.1,0,0.1,0c0.5,0.1,1,0.2,1.5,0.3c0.2,0,0.3,0.1,0.5,0.1c0.3,0.1,0.7,0.2,1,0.3 c0.2,0.1,0.4,0.1,0.6,0.2c0.3,0.1,0.6,0.2,0.9,0.3c0.2,0.1,0.4,0.2,0.6,0.2c0.3,0.1,0.6,0.2,0.9,0.3c0.2,0.1,0.4,0.2,0.6,0.3 c0.3,0.1,0.5,0.2,0.8,0.4c0.2,0.1,0.4,0.2,0.6,0.3c0.3,0.1,0.5,0.3,0.8,0.4c0.2,0.1,0.4,0.2,0.6,0.3c0.3,0.1,0.5,0.3,0.8,0.4 c0.2,0.1,0.4,0.2,0.6,0.4c0.2,0.2,0.5,0.3,0.7,0.5c0.2,0.1,0.4,0.3,0.6,0.4c0.2,0.2,0.5,0.3,0.7,0.5c0.2,0.1,0.4,0.3,0.5,0.4 c0.2,0.2,0.5,0.4,0.7,0.6c0.2,0.1,0.3,0.3,0.5,0.4c0.3,0.2,0.5,0.4,0.8,0.7c0.1,0.1,0.3,0.2,0.4,0.4c0.4,0.3,0.7,0.7,1,1 c0,0,0.1,0.1,0.1,0.1c0.3,0.3,0.7,0.7,1,1c0.1,0.1,0.2,0.3,0.4,0.4c0.2,0.3,0.4,0.5,0.7,0.8c0.1,0.2,0.3,0.3,0.4,0.5 c0.2,0.2,0.4,0.5,0.6,0.7c0.1,0.2,0.3,0.4,0.4,0.5c0.2,0.2,0.3,0.5,0.5,0.7c0.1,0.2,0.3,0.4,0.4,0.6c0.2,0.2,0.3,0.5,0.5,0.7 c0.1,0.2,0.2,0.4,0.4,0.6c0.1,0.2,0.3,0.5,0.4,0.8c0.1,0.2,0.2,0.4,0.3,0.6c0.1,0.3,0.3,0.5,0.4,0.8c0.1,0.2,0.2,0.4,0.3,0.6 c0.1,0.3,0.2,0.5,0.4,0.8c0.1,0.2,0.2,0.4,0.3,0.6c0.1,0.3,0.2,0.6,0.3,0.9c0.1,0.2,0.2,0.4,0.2,0.6c0.1,0.3,0.2,0.6,0.3,0.9 c0.1,0.2,0.1,0.4,0.2,0.6c0.1,0.3,0.2,0.7,0.3,1c0,0.2,0.1,0.3,0.1,0.5c0.1,0.5,0.2,1,0.3,1.5c0,0,0,0.1,0,0.1 c0.1,0.5,0.2,1.1,0.3,1.6c0,0.2,0,0.3,0.1,0.5c0.1,0.4,0.1,0.8,0.1,1.2c0,0.2,0,0.4,0.1,0.6c0,0.3,0.1,0.6,0.1,0.8h0.1h11.5 C93.8,24.7,75.2,6.1,52,5V16.5L52,16.5z" fill="#e4efff" style="fill: rgb(228, 239, 255);"/></g><g style="transform-origin: 50px 50px 0px; animation-duration: 4.4s; animation-delay: -2.68889s;" class="ld ld-fade"><path id="XMLID_822_" class="st0" d="M52,32.3c8.1,1,14.6,7.4,15.6,15.6h11.6c0-0.2,0-0.4,0-0.5c0-0.2,0-0.4-0.1-0.6 c0-0.3-0.1-0.6-0.1-0.9c0-0.2,0-0.4-0.1-0.6c0-0.3-0.1-0.6-0.2-0.9c0-0.2-0.1-0.3-0.1-0.5c-0.1-0.3-0.1-0.7-0.2-1 c0-0.1-0.1-0.3-0.1-0.4c-0.1-0.4-0.2-0.9-0.4-1.3c0-0.1-0.1-0.3-0.1-0.4c-0.1-0.3-0.2-0.6-0.3-0.9c-0.1-0.2-0.1-0.4-0.2-0.6 c-0.1-0.2-0.2-0.5-0.3-0.7c-0.1-0.2-0.2-0.4-0.3-0.6c-0.1-0.2-0.2-0.4-0.3-0.7c-0.1-0.2-0.2-0.4-0.3-0.6c-0.1-0.2-0.2-0.4-0.3-0.6 c-0.1-0.2-0.2-0.4-0.3-0.6c-0.1-0.2-0.2-0.4-0.3-0.6c-0.1-0.2-0.2-0.4-0.3-0.6c-0.1-0.2-0.2-0.4-0.4-0.6c-0.1-0.2-0.2-0.4-0.4-0.6 c-0.1-0.2-0.3-0.4-0.4-0.5c-0.1-0.2-0.3-0.4-0.4-0.5c-0.1-0.2-0.3-0.4-0.4-0.5c-0.1-0.2-0.3-0.4-0.4-0.5c-0.1-0.2-0.3-0.3-0.4-0.5 c-0.1-0.2-0.3-0.3-0.4-0.5c-0.2-0.2-0.3-0.3-0.5-0.5c-0.3-0.3-0.6-0.6-0.9-0.9c-0.2-0.2-0.3-0.3-0.5-0.5c-0.2-0.2-0.3-0.3-0.5-0.4 c-0.2-0.1-0.3-0.3-0.5-0.4c-0.2-0.1-0.4-0.3-0.5-0.4c-0.2-0.1-0.3-0.3-0.5-0.4c-0.2-0.1-0.4-0.3-0.5-0.4c-0.2-0.1-0.4-0.3-0.5-0.4 c-0.2-0.1-0.4-0.3-0.6-0.4c-0.2-0.1-0.4-0.2-0.6-0.4c-0.2-0.1-0.4-0.2-0.6-0.3c-0.2-0.1-0.4-0.2-0.6-0.3c-0.2-0.1-0.4-0.2-0.6-0.3 c-0.2-0.1-0.4-0.2-0.6-0.3c-0.2-0.1-0.4-0.2-0.6-0.3c-0.2-0.1-0.4-0.2-0.7-0.3c-0.2-0.1-0.4-0.2-0.6-0.3c-0.2-0.1-0.5-0.2-0.7-0.3 c-0.2-0.1-0.4-0.1-0.6-0.2c-0.3-0.1-0.6-0.2-0.9-0.3c-0.1,0-0.3-0.1-0.4-0.1c-0.4-0.1-0.9-0.3-1.3-0.4c-0.1,0-0.3-0.1-0.4-0.1 c-0.3-0.1-0.6-0.2-1-0.2c-0.2,0-0.3-0.1-0.5-0.1c-0.3-0.1-0.6-0.1-0.9-0.2C54.3,21,54.2,21,54,21c-0.3,0-0.6-0.1-0.9-0.1 c-0.2,0-0.4,0-0.6-0.1c-0.2,0-0.3,0-0.5,0V32.3z" fill="#e4efff" style="fill: rgb(228, 239, 255);"/></g><g style="transform-origin: 50px 50px 0px; animation-duration: 4.4s; animation-delay: -2.44444s;" class="ld ld-fade"><path id="XMLID_939_" class="st0" d="M71.7,75.4c-0.4,0.3-0.8,0.6-1.1,0.9c-0.4,0.3-0.8,0.6-1.2,0.9c-0.3,0.2-0.7,0.5-1,0.7 c-0.3,0.2-0.7,0.5-1,0.7c-0.5,0.3-1,0.6-1.5,0.8c-0.4,0.2-0.8,0.4-1.2,0.6c-0.3,0.2-0.6,0.3-0.9,0.4c-0.6,0.3-1.1,0.5-1.7,0.7 c-0.4,0.1-0.7,0.3-1.1,0.4c-0.3,0.1-0.7,0.2-1,0.3c-0.6,0.2-1.3,0.4-1.9,0.5c-0.3,0.1-0.6,0.1-0.8,0.2c-0.7,0.2-1.4,0.3-2.2,0.4 c-0.2,0-0.3,0-0.5,0.1c-0.7,0.1-1.4,0.2-2.2,0.2c-0.1,0-0.2,0-0.3,0v0.1V95v0c10.6-0.5,20.5-4.6,28.3-11.8L72.2,75 C72,75.2,71.9,75.3,71.7,75.4z" fill="#e4efff" style="fill: rgb(228, 239, 255);"/></g><metadata xmlns:d="https://loading.io/stock/" style="transform-origin: 50px 50px 0px; animation-duration: 4.4s; animation-delay: -2.2s;" class="ld ld-fade">
<d:name style="transform-origin: 50px 50px 0px; animation-duration: 4.4s; animation-delay: -1.95556s;" class="ld ld-fade">sunburst</d:name>
<d:tags style="transform-origin: 50px 50px 0px; animation-duration: 4.4s; animation-delay: -1.71111s;" class="ld ld-fade">sunburst,donut chart,pie chart,proportion,ratio,percent,visualization,visualize</d:tags>
<d:license style="transform-origin: 50px 50px 0px; animation-duration: 4.4s; animation-delay: -1.46667s;" class="ld ld-fade">cc-by</d:license>
<d:slug style="transform-origin: 50px 50px 0px; animation-duration: 4.4s; animation-delay: -1.22222s;" class="ld ld-fade">k5vd49</d:slug>
</metadata></g></g><style type="text/css" style="transform-origin: 50px 50px 0px; animation-duration: 4.4s; animation-delay: -0.977778s;" class="ld ld-fade">path,ellipse,circle,rect,polygon,polyline,line { stroke-width: 0; }@keyframes ld-fade {
  0% {
    opacity: 1;
  }
  100% {
    opacity: 0;
  }
}
@-webkit-keyframes ld-fade {
  0% {
    opacity: 1;
  }
  100% {
    opacity: 0;
  }
}
.ld.ld-fade {
  -webkit-animation: ld-fade 1s infinite linear;
  animation: ld-fade 1s infinite linear;
}
</style></svg></svg>